<svg style="width:1em; height:1em; vertical-align:middle;" viewBox="0 0 107 107" version="1.1" xmlns="http://www.w3.org/2000/svg">
	<g fill="currentColor" fill-rule="evenodd">
	   <path d="M28.76,80.296 L28.76,85.336 L60.296,85.336 L60.296,70.36 L84.056,70.36 L84.056,85.336 L84.056,86.488 C84.056,89.3680144 83.0240103,91.8399897 80.96,93.904 C78.8959897,95.9680103 76.4240144,97 73.544,97 L62.312,97 L60.296,97 L28.76,97 L26.744,97 L15.224,97 C12.4399861,97 10.0400101,95.9920101 8.024,93.976 C6.00798992,91.9599899 5,89.5600139 5,86.776 L5,85.336 L5,80.296 L5,22.408 L5,20.968 C5,18.0879856 6.00798992,15.6400101 8.024,13.624 C10.0400101,11.6079899 12.4399861,10.6 15.224,10.6 L26.744,10.6 L28.76,10.6 L60.296,10.6 L62.312,10.6 L73.544,10.6 C76.4240144,10.6 78.8959897,11.6319897 80.96,13.696 C83.0240103,15.7600103 84.056,18.2319856 84.056,21.112 L84.056,22.408 L84.056,37.24 L60.296,37.24 L60.296,22.408 L28.76,22.408 L28.76,80.296 Z"></path>
	   <path d="M46.18,43.54 L46.18,44.78 L59.78,44.78 L59.78,44.86 C58.94,45.86 58.22,46.82 57.46,47.78 L45.18,64.06 L45.18,64.98 L61.46,64.98 L61.46,63.74 L46.98,63.74 L46.98,63.66 C47.74,62.74 48.46,61.82 49.18,60.86 L61.46,44.62 L61.46,43.54 L46.18,43.54 Z M79.86,62.9 C78.7,63.46 77.1,64.26 73.9,64.26 C68.5,64.26 65.34,60.42 65.38,53.7 L81.5,53.7 C81.54,53.5 81.54,53.3 81.54,53.02 C81.54,48.62 79.74,43.06 73.38,43.06 C68.14,43.06 63.94,47.22 63.94,54.66 C63.94,60.9 67.7,65.42 73.7,65.42 C77.58,65.42 79.74,64.34 80.34,63.98 L79.86,62.9 Z M65.54,52.46 C65.94,48.9 68.22,44.18 73.22,44.18 C78.98,44.18 80.02,50.06 79.98,52.46 L65.54,52.46 Z M103.58,52.1 C103.58,43.82 97.86,43.06 96.18,43.06 C92.9,43.06 90.18,44.78 88.66,47.54 L88.58,47.54 L88.46,43.54 L87.1,43.54 C87.22,45.18 87.26,46.54 87.26,48.38 L87.26,64.98 L88.66,64.98 L88.66,51.58 C88.66,48.26 91.58,44.26 95.86,44.26 C100.58,44.26 102.18,48.1 102.18,52.22 L102.18,64.98 L103.58,64.98 L103.58,52.1 Z"></path>
	</g>
</svg>